<?xml version="1.0" encoding="UTF-8"?>
<!DOCTYPE svg PUBLIC "-//W3C//DTD SVG 1.1//EN" "http://www.w3.org/Graphics/SVG/1.1/DTD/svg11.dtd">
<svg xmlns="http://www.w3.org/2000/svg" version="1.1" width="225px" height="225px" style="shape-rendering:geometricPrecision; text-rendering:geometricPrecision; image-rendering:optimizeQuality; fill-rule:evenodd; clip-rule:evenodd" xmlns:xlink="http://www.w3.org/1999/xlink">
<g><path style="opacity:1" fill="#035e81" d="M 97.5,37.5 C 104.279,37.8754 104.779,36.2088 99,32.5C 95.1125,34.7975 90.9458,35.6308 86.5,35C 85.8742,34.2496 85.3742,33.4162 85,32.5C 84.9657,34.1796 84.799,35.6796 84.5,37C 80.6407,38.4236 76.8073,39.9236 73,41.5C 69.3583,39.0748 65.525,37.9081 61.5,38C 61.1667,37.6667 60.8333,37.3333 60.5,37C 61.3805,36.2917 62.0472,35.4584 62.5,34.5C 72.4735,27.7791 83.4735,23.2791 95.5,21C 122.005,15.4137 146.005,20.747 167.5,37C 172.212,42.0434 176.545,47.3767 180.5,53C 172.389,68.4444 160.389,79.7777 144.5,87C 127.4,92.6989 115.567,87.1989 109,70.5C 107.97,66.2273 107.303,61.894 107,57.5C 99.2358,67.0224 89.7358,69.0224 78.5,63.5C 77.3861,62.277 77.2195,60.9437 78,59.5C 81.8807,49.7892 88.3807,42.4559 97.5,37.5 Z M 138.5,40.5 C 145.158,39.3445 147.158,41.8445 144.5,48C 140.694,49.9392 138.028,48.7725 136.5,44.5C 137.18,43.1401 137.847,41.8068 138.5,40.5 Z"/></g>
<g><path style="opacity:1" fill="#075c7e" d="M 73.5,16.5 C 79.9552,16.15 86.2885,16.8167 92.5,18.5C 70.3642,24.1732 52.0309,35.6732 37.5,53C 30.7583,53.6145 24.0916,53.1145 17.5,51.5C 31.4797,32.1845 50.1464,20.5179 73.5,16.5 Z"/></g>
<g><path style="opacity:1" fill="#0b5b7b" d="M 97.5,37.5 C 98.4734,37.0133 99.4734,36.5133 100.5,36C 67.3303,40.1598 44.1636,57.6598 31,88.5C 22.9954,107.185 20.6621,126.518 24,146.5C 12.276,105.008 22.1094,69.508 53.5,40C 56.2223,37.6422 59.2223,35.8089 62.5,34.5C 62.0472,35.4584 61.3805,36.2917 60.5,37C 60.8333,37.3333 61.1667,37.6667 61.5,38C 65.525,37.9081 69.3583,39.0748 73,41.5C 76.8073,39.9236 80.6407,38.4236 84.5,37C 84.799,35.6796 84.9657,34.1796 85,32.5C 85.3742,33.4162 85.8742,34.2496 86.5,35C 90.9458,35.6308 95.1125,34.7975 99,32.5C 104.779,36.2088 104.279,37.8754 97.5,37.5 Z"/></g>
<g><path style="opacity:1" fill="#0987a4" d="M 80.5,204.5 C 81.3543,203.368 81.3543,202.035 80.5,200.5C 116.511,212.288 148.011,204.955 175,178.5C 190.509,159.468 196.175,137.801 192,113.5C 189.173,103.513 185.506,93.8461 181,84.5C 179.031,73.1346 183.531,68.6346 194.5,71C 202.225,76.9316 207.059,84.7649 209,94.5C 216.192,135.613 203.359,168.78 170.5,194C 142.173,213.11 112.173,216.61 80.5,204.5 Z"/></g>
<g><path style="opacity:1" fill="#0f85a2" d="M 151.5,112.5 C 155.803,111.796 159.303,113.13 162,116.5C 166.79,124.613 168.29,133.279 166.5,142.5C 161.864,134.697 155.698,128.364 148,123.5C 145.718,118.732 146.885,115.065 151.5,112.5 Z"/></g>
<g><path style="opacity:1" fill="#065d7f" d="M 80.5,200.5 C 81.3543,202.035 81.3543,203.368 80.5,204.5C 51.8592,193.661 36.1925,172.828 33.5,142C 35.5181,118.98 47.1848,102.98 68.5,94C 74.0555,92.1944 79.7222,90.8611 85.5,90C 90.0204,89.0716 94.3537,89.4049 98.5,91C 78.6753,91.0371 62.842,98.8704 51,114.5C 45.6929,122.061 43.6929,130.394 45,139.5C 46.1667,142 48,143.833 50.5,145C 53.6262,145.759 56.7928,146.259 60,146.5C 69.8481,145.423 79.6814,144.589 89.5,144C 97.4721,145.151 104.139,148.651 109.5,154.5C 104.339,154.459 99.0055,154.626 93.5,155C 83.2197,156.613 76.7197,162.447 74,172.5C 71.8003,183.001 73.967,192.334 80.5,200.5 Z"/></g>
<g><path style="opacity:1" fill="#0d86a4" d="M 149.5,135.5 C 155.362,135.189 159.196,137.856 161,143.5C 163.455,157.825 158.622,169.658 146.5,179C 138.596,185.787 129.596,190.12 119.5,192C 128.818,187.678 136.651,181.511 143,173.5C 145.719,168.678 147.219,163.511 147.5,158C 145.909,151.925 145.409,145.758 146,139.5C 146.69,137.65 147.856,136.316 149.5,135.5 Z"/></g>
<g><path style="opacity:1" fill="#0f85a2" d="M 173.5,107.5 C 181.661,106.482 186.161,110.149 187,118.5C 189.573,156.523 173.073,182.356 137.5,196C 125.478,200.953 113.145,202.286 100.5,200C 135.201,198.611 158.701,181.778 171,149.5C 171.759,146.374 172.259,143.207 172.5,140C 171.705,132.472 170.705,124.972 169.5,117.5C 169.478,113.554 170.812,110.22 173.5,107.5 Z"/></g>
</svg>
